<svg xmlns="http://www.w3.org/2000/svg" width="750" height="1334" viewBox="0 0 750 1334">
  <defs>
    <style>
      .cls-1 {
        fill-rule: evenodd;
      }
    </style>
  </defs>
  <path id="多边形_1" data-name="多边形 1" class="cls-1" d="M354,445c15.727,0.171,24.751,11.923,37,10,15.256-2.395,39.1-15.626,56-7l1,3c-4.224,3.949-6.665,6.282-4,12,14.069,3.182,31.878,6.263,42,14l8,13c10.457,9.7,25.882,14.021,34,26l11,28,16,13c-2.152,4.874-2.594,3.71-8,3,3.513,9.74,16.906,11.458,23,19-1.021,5-1.6,4.042-4,7,5.074,14.862,14.922,36.806,23,50l-6,11,6,26c2.258,13.673-2.18,28.282-3,38q0.5,11.5,1,23l-10,8c-6.9,11.053-.431,40.679,1,47,0.936,4.136-7.278,70.71-9,77-5.56,20.315-25.943,27.389-30,42a520.871,520.871,0,0,1,91,38c20.218-9.878,35.2,4.2,50,11,19.293,8.857,36.955,19.228,45,39q3.5,14,7,28c6.373,13.43,14.835,42.11,9,67-7.855,33.51-36.586,54.4-55,78-31.605,40.51-60.973,77.98-77,134-1.333.33-2.667,0.67-4,1-0.333-.33-0.667-0.67-1-1-0.282-42.51,26.376-65.72,45-90q18.5-27,37-54c16.4-19.16,35.271-36.03,46-61,15.237-35.47-10.023-107.488-32-124l-51-26c-11.206-2.474-14.944,7.054-25,3l-24-16c-19.023-10.03-42.532-17.407-66-22V902c5.525-11.376,19.183-15.314,25-27,5.8-11.657,12.065-69.645,13-85-2.477-4.116-3.1-5.933-9-7l-12,15c-4.418,12.151-1.981,24.784-8,36,0.69-21.89.783-26.711-3-46-5.356-27.309,6.369-43.238-4-67-29.5,3.353-18.05-13.422-37-19l-4,5c-12.521-4.992-16.829-12.392-27-18-17.668,3.893-33.58-7.437-45-5l-14,7-1-1c-10.244-7.23-1.966-31.188-4-44-8.011,2.548-26.591,25.626-23,38l8,13c-21.559,6.918-32.132-18.86-46-22-13.924-3.152-19.826,6.539-28,9-12.444,3.746-11.321-9.448-25-6-10.832,2.73-15.123,13.048-29,11-1.958-4.117-4.065-9.648-8-12-3.154-.865-3.177-0.3-6,1l-8,21-3-2-7-10-4,2-9,32,6,22c-0.323,29.206-5.136,65.2-2,97l-2-1c-0.5-14.921-7.516-50.334-14-61l-9,3c-9.618,56.686,37.569,95.321,41,147-15.786,30.234-58.122,22.572-92,35-23.227,8.521-31.577,29-50,40-8.449,5.04-18.843,3.18-30,6-10.774,2.72-21.358,15.77-27,24-8.57,12.51-4.73,40.19-8,56q-6.5,16.005-13,32c-3.745,18.03,3.837,35.41,6,51,2.61,18.81-15.36,31.2-11,46,7.111,24.14,36.892,57.01,32,85-3.982.58-2.6,1.33-5-2q-1.5-10.005-3-20c-8.479-20.78-26.529-40.11-31-64-2.69-14.37,8.744-21.86,11-33q-3-29.49-6-59c2.417-16.04,12.375-25.75,14-39,4.128-33.66,2.834-58.32,26-76,10.1-7.71,26.344-4.96,39-11,7.088-3.384,9.732-10.844,15-16a119.714,119.714,0,0,1,40-26c32.152-12.46,64.087-10.334,87-30-10.05-29.736-53.038-110.268-44-146,1.72-6.8,7.091-7.368,9-14-3-9.3.352-23.277-2-35-4.326-21.565-9.881-51.873-7-74-6.431.049-8.409-.9-12-3v-4c5.681-2.751,11.021-5.342,13-12l-9-1v-4c12.844-9.459,4.367-12.436,9-30l11-17c5.553-13.435,5.994-27.588,14-38,8.191-10.653,30.929-16.693,35-30-5.859-.61-9.712-1.3-11-7l1-2c25.422,0.111,42.4-10.153,55-23-1.893-4.226-2.949-5.179,1-8,7.084-2.5,14.357-.5,19-5l-8-4v-3a99.115,99.115,0,0,1,47-12c-0.342-5.328-.646-5.291,1-9ZM268,710c31.123-.158,60.976,19.963,82,33q1,3.5,2,7l-1,1c-29.289-15.625-70.119-25.017-110-25v-1l2-3Zm207,4c14.6-.437,29.958,5.349,37,13v1c-42.664-.9-80.658,9.775-112,23C405.479,731.538,457.93,725.471,475,714ZM280,749c13.794,0.273,47.382,10.358,51,21l-56,1c-7.227-1.544-12.591-4.133-22-3l4-6A175.2,175.2,0,0,0,280,749Zm68,3,4,6c5.455-.275,10.235-0.187,13,2l-1,2c-9.346.09-13.144,3.07-17,2v-1Q347.5,757.5,348,752Zm-62,2-2,1q1,3.5,2,7h4l3-4-3-4h-4Zm-15,1-10,7v3l1,1c7.4,0.776,12.362,2.619,18,0q-0.5-5.5-1-11h-8Zm185,0c18.6,0.338,32.566,6.511,44,14q0.5,2.5,1,5c-15.15,6.223-38.449,10.108-58,6,1.465-3.7,2.155-6.772,1-11h-1c-10.074,1.622-9.985,7.527-20,9l1-3Zm-53,4c2.7,2.193,1.9.712,3,5l-2,3-19,1,1-3C391.961,763.833,399.537,762.864,403,759Zm56,0-14,8,2,3h1c6.311-1.537,14.8-3.963,17-10Zm18,1q-2.5,8-5,16l3,3c7.847-.322,13.77-2.982,19-6l-3-8Zm-162,3-2,5h6l2-1-2-3Zm32,10,4,3C346.528,774.693,348.991,776.662,347,773Zm-12,4c3.863,2.879,2.911,2.983,1,7l-21,5,1-3C322.174,784.063,331.249,781.724,335,777Zm44,4,4,3c-0.756,6.328-4.123,10.9-9,13v-1C376.182,791.615,377.308,786.75,379,781ZM200,793c5.769,3.507,5.43,19.3,1,24v-2l-2-1Q199.5,803.5,200,793Zm360,3,4,2a64.807,64.807,0,0,1-3,22q-1-3-2-6c-3.681-2.1-3.665-2.466-4-8C558.261,802.373,559.485,803.065,560,796ZM409,835c9.308,5.553,17.26,37.255,3,43C419.239,861.421,410.9,850.713,409,835Zm144,5h2q-1,3-2,6h-2v-4ZM340,859c5.118,0.912,7.676,2.346,10,6,1.516,2.923,1.03,1.367,1,5l-2,1-3-2c-1.557-4.4-3.989-5.341-7-8Zm102,5v0Zm-49,4,8,3v7c-5.152-.674-16.365-2.258-20-5v-1Zm154,2h3v5h-4Q546.5,872.5,547,870ZM341,939c4.948,0.815,2.978-.668,5,3-5.342,1.139-10.756,2.713-14,6l2,4c20.23-.91,46.748,3.454,70,4,3.011,0.071,4.8.362,3-2,52.449,8.424-21.51,88.54-32,101v1h5q4-2.505,8-5c-3.086,11.02-18.525,16.75-32,14l1-3c6.009-4.36,16.216-7.82,22-13,9.718-8.7,40.647-59.155,38-75-10.4-14.049-47.159-11.132-57,1l-2-1-3-8c-50.407-13.66-58.158,62.44-35,92,5.605,7.15,17.071,6.01,23,10v1c-40.622.38-37.251-53.13-31-85,1.613-8.223-2.379-16.653,1-24C318.342,948.384,330.934,946.016,341,939Zm29,48c4.571,2.077,5.448,1.17,11,0v1l-2,2c-2.966,7.3-19.728,27.62-29,21C360.135,1008.07,369.511,999.591,370,987Zm43,37c2.96,9.18-6.8,17.38-12,22-0.667-.33-1.333-0.67-2-1l1-3C406.352,1037.37,408.816,1030.75,413,1024ZM135,1271c11.054,3.45,15.615,15.74,24,22l18,9-4,3C156.209,1300.1,137.772,1285.3,135,1271Z"/>
</svg>
